<svg width="24" height="24" viewBox="0 0 24 24" fill="none" xmlns="http://www.w3.org/2000/svg">
<path d="M21.3731 6.30698C21.4159 6.64901 21.3088 7.2048 21.0733 7.50407C20.5595 8.18812 19.8744 8.16676 19.1037 8.27364C17.2624 8.53016 15.935 9.66312 15.3784 11.4374C15.2713 11.758 15.2285 12.2497 15.1857 12.5917C15.0572 13.3827 14.6291 14.0881 14.0082 14.5584C12.5951 15.67 10.861 14.7508 9.14822 16.9098C8.69862 17.4656 8.42027 18.1069 8.27041 18.791C8.16336 19.3681 8.27043 20.2873 7.86364 20.6935C6.23652 22.3822 3.47464 20.5225 2.78954 18.7482C2.66108 18.3848 2.61826 18.1069 2.57544 17.7649C2.57544 17.2518 2.61827 16.7388 2.96082 16.3326C3.45324 15.7555 4.15977 15.7341 4.84487 15.6913C5.61562 15.6272 6.15088 15.3921 6.79317 14.9645C7.86364 14.2591 8.44166 13.233 8.67717 12.0146C8.76281 11.587 8.84846 11.0312 9.01974 10.6251C9.23384 10.112 9.6192 9.70587 10.026 9.36384C10.8181 8.72254 11.439 8.78667 12.381 8.61566C13.3445 8.40189 14.2437 7.78198 14.8431 7.0338C15.2927 6.478 15.5711 5.72981 15.6995 5.04576C15.828 4.40446 15.6995 3.69903 16.1919 3.16461C16.4917 2.82258 16.8771 2.6302 17.3267 2.60882C18.2901 2.50194 19.1679 2.92947 19.8958 3.52802C20.3882 3.95555 20.795 4.44721 21.0947 5.02438C21.3088 5.45192 21.373 5.8367 21.4159 6.30698H21.3731Z" fill="#202020"/>
<path d="M14.2863 4.16925C14.3077 4.55403 14.2649 5.00294 14.0722 5.34497C13.3228 6.58481 12.1667 6.47793 10.9892 6.77721C8.99807 7.31162 7.37096 8.89349 6.83572 10.9029C6.64304 11.6938 6.62162 12.3565 6.23625 13.1047C5.65819 14.1949 4.52349 14.6224 3.41019 14.0239C2.7465 13.6605 2.2755 12.8909 2.08281 12.1427V12.1C1.84731 10.9456 2.0828 9.44928 3.1961 8.78661C3.56006 8.59422 4.03106 8.53009 4.41643 8.44458C6.3647 7.99567 8.12027 6.24279 8.46282 4.25476C8.67692 2.95079 9.40487 2.2881 10.6894 2.05296C11.5672 1.88194 12.5521 2.13847 13.3014 2.63013C13.8581 2.99353 14.222 3.57071 14.3505 4.21201L14.2863 4.16925Z" fill="#202020"/>
<path d="M21.9718 12.4633C22.1645 13.5963 21.351 15.2851 20.1092 15.4561C18.5891 15.6485 17.4758 16.3539 16.5124 17.551C16.127 18.0426 15.8273 18.5984 15.6346 19.197C15.5918 19.3466 15.4633 19.6886 15.4419 19.8383C15.0994 23.0448 9.46864 22.5317 9.66133 19.3039C9.70415 18.8763 9.85402 18.5984 10.1538 18.2778C11.0958 17.2303 12.3375 17.4869 13.5365 17.0379C14.4999 16.6745 15.0566 16.2043 15.7845 15.4988C16.598 14.6651 16.9406 13.7459 17.2189 12.6343C17.3902 11.8862 17.433 11.2021 17.9254 10.5822C18.7176 9.57749 19.8951 9.44923 20.8799 10.2615C21.565 10.8387 21.8648 11.651 21.9718 12.5061V12.4633Z" fill="#202020"/>
<path d="M20.966 18.4061C20.8803 20.5438 17.776 22.1471 17.2835 19.9025C17.1979 17.7221 20.6662 16.0761 20.966 18.4061Z" fill="#202020"/>
<path d="M6.64258 3.95558C6.6854 5.10992 5.95752 6.11462 4.86563 6.52078C4.03066 6.84143 3.25988 6.64904 2.96015 5.70847C2.57478 3.91283 6.02171 1.64691 6.64258 3.93421V3.95558Z" fill="#202020"/>
</svg>
