<svg width="24" height="24" viewBox="0 0 24 24" fill="none" xmlns="http://www.w3.org/2000/svg">
<path d="M11.6553 5.78794C11.3999 4.39528 12.0584 2.96208 12.8514 1.99622C13.7254 0.930516 15.2253 0.11325 16.507 0.0234375C16.7235 1.48355 16.1276 2.90616 15.3433 3.91242C14.5019 4.99345 13.0552 5.83177 11.6553 5.78794ZM19.1736 10.8343C19.5702 9.72773 20.356 8.73216 21.5749 8.06044C20.3431 6.52331 18.6137 5.63091 16.9816 5.63091C14.8223 5.63091 13.9093 6.65967 12.4095 6.65967C10.8645 6.65967 9.69241 5.63091 7.82205 5.63091C5.98797 5.63091 4.03568 6.74878 2.79752 8.65795C2.34227 9.36366 2.03388 10.2404 1.86569 11.2169C1.39901 13.9562 2.09613 17.5242 4.17565 20.6924C5.18674 22.2297 6.53444 23.9613 8.29507 23.9764C9.86346 23.9917 10.3084 22.9736 12.4316 22.9631C14.5579 22.951 14.9609 23.9869 16.5272 23.972C18.2883 23.9571 19.7103 22.0408 20.7213 20.5036C21.4413 19.4006 21.7136 18.8434 22.2734 17.5963C19.4268 16.5228 18.2561 13.3861 19.1736 10.8343Z" fill="#0F1011"/>
</svg>
