<svg width="24" height="24" viewBox="0 0 24 24" fill="none" xmlns="http://www.w3.org/2000/svg">
<path d="M13 2L11 2C7.22876 2 5.34315 2 4.17157 3.17157C3 4.34315 3 6.22876 3 10L3 14C3 17.7712 3 19.6569 4.17157 20.8284C5.34315 22 7.22876 22 11 22H13C16.7712 22 18.6569 22 19.8284 20.8284C21 19.6569 21 17.7712 21 14L21 10C21 6.22876 21 4.34315 19.8284 3.17157C18.6569 2 16.7712 2 13 2Z" stroke="#187BE3" stroke-width="1.5" stroke-linecap="round"/>
<path d="M21 12L3 12" stroke="#187BE3" stroke-width="1.5" stroke-linecap="round"/>
<path d="M15 7L9 7" stroke="#187BE3" stroke-width="1.5" stroke-linecap="round"/>
<path d="M15 17H9" stroke="#187BE3" stroke-width="1.5" stroke-linecap="round"/>
</svg>
