<svg width="24" height="24" viewBox="0 0 24 24" fill="none" xmlns="http://www.w3.org/2000/svg">
<path d="M19.2807 18.9694C19.3504 19.0391 19.4057 19.1218 19.4434 19.2128C19.4811 19.3039 19.5005 19.4015 19.5005 19.5C19.5005 19.5986 19.4811 19.6961 19.4434 19.7872C19.4057 19.8782 19.3504 19.9609 19.2807 20.0306C19.211 20.1003 19.1283 20.1556 19.0373 20.1933C18.9462 20.231 18.8486 20.2504 18.7501 20.2504C18.6516 20.2504 18.554 20.231 18.4629 20.1933C18.3719 20.1556 18.2892 20.1003 18.2195 20.0306L10.7195 12.5306C10.6497 12.461 10.5944 12.3783 10.5567 12.2872C10.5189 12.1962 10.4995 12.0986 10.4995 12C10.4995 11.9014 10.5189 11.8038 10.5567 11.7128C10.5944 11.6218 10.6497 11.539 10.7195 11.4694L18.2195 3.96938C18.3602 3.82865 18.5511 3.74959 18.7501 3.74959C18.9491 3.74959 19.14 3.82865 19.2807 3.96938C19.4215 4.11011 19.5005 4.30098 19.5005 4.50001C19.5005 4.69903 19.4215 4.8899 19.2807 5.03063L12.3104 12L19.2807 18.9694ZM4.81041 12L11.7807 5.03063C11.9215 4.8899 12.0005 4.69903 12.0005 4.50001C12.0005 4.30098 11.9215 4.11011 11.7807 3.96938C11.64 3.82865 11.4491 3.74959 11.2501 3.74959C11.0511 3.74959 10.8602 3.82865 10.7195 3.96938L3.21948 11.4694C3.14974 11.539 3.09443 11.6218 3.05668 11.7128C3.01894 11.8038 2.99951 11.9014 2.99951 12C2.99951 12.0986 3.01894 12.1962 3.05668 12.2872C3.09443 12.3783 3.14974 12.461 3.21948 12.5306L10.7195 20.0306C10.7892 20.1003 10.8719 20.1556 10.9629 20.1933C11.054 20.231 11.1516 20.2504 11.2501 20.2504C11.3486 20.2504 11.4462 20.231 11.5373 20.1933C11.6283 20.1556 11.711 20.1003 11.7807 20.0306C11.8504 19.9609 11.9057 19.8782 11.9434 19.7872C11.9811 19.6961 12.0005 19.5986 12.0005 19.5C12.0005 19.4015 11.9811 19.3039 11.9434 19.2128C11.9057 19.1218 11.8504 19.0391 11.7807 18.9694L4.81041 12Z" fill="black"/>
</svg>
