<svg width="24" height="24" viewBox="0 0 24 24" fill="none" xmlns="http://www.w3.org/2000/svg">
<g opacity="0.5">
<path d="M11 20C6.75736 20 4.63604 20 3.31802 18.682C2 17.364 2 15.2426 2 11C2 6.75736 2 4.63604 3.31802 3.31802C4.63604 2 6.75736 2 11 2C15.2427 2 17.364 2 18.682 3.31802C19.8921 4.52814 19.9912 6.41543 19.9993 10" stroke="#0F1011" stroke-width="1.5" stroke-linecap="round" stroke-linejoin="round"/>
<path d="M2 11L11 11" stroke="#0F1011" stroke-width="1.5" stroke-linecap="round" stroke-linejoin="round"/>
<path d="M10 6.5L16 6.5" stroke="#0F1011" stroke-width="1.5" stroke-linecap="round" stroke-linejoin="round"/>
<path d="M6.125 6.5H6M6.25 6.5C6.25 6.63807 6.13807 6.75 6 6.75C5.86193 6.75 5.75 6.63807 5.75 6.5C5.75 6.36193 5.86193 6.25 6 6.25C6.13807 6.25 6.25 6.36193 6.25 6.5Z" stroke="#0F1011" stroke-width="1.5" stroke-linecap="round" stroke-linejoin="round"/>
<path d="M6.125 15.5H6M6.25 15.5C6.25 15.6381 6.13807 15.75 6 15.75C5.86193 15.75 5.75 15.6381 5.75 15.5C5.75 15.3619 5.86193 15.25 6 15.25C6.13807 15.25 6.25 15.3619 6.25 15.5Z" stroke="#0F1011" stroke-width="1.5" stroke-linecap="round" stroke-linejoin="round"/>
<path d="M14.2908 16C14.8842 14.5341 16.3213 13.5 18 13.5C19.4806 13.5 20.7733 14.3044 21.4649 15.5M21.7093 19C21.1159 20.4659 19.6787 21.5 18 21.5C16.5195 21.5 15.2268 20.6956 14.5352 19.5M17 16H14V13M19 19H22V22" stroke="#0F1011" stroke-width="1.5" stroke-linecap="round" stroke-linejoin="round"/>
</g>
</svg>
