<svg width="24" height="24" viewBox="0 0 24 24" fill="none" xmlns="http://www.w3.org/2000/svg">
<path d="M13.659 5.50836C14.2551 4.86246 14.5532 4.53952 14.8699 4.35114C15.6342 3.89661 16.5753 3.88247 17.3523 4.31386C17.6743 4.49264 17.9815 4.8065 18.596 5.43421C19.2105 6.06192 19.5178 6.37577 19.6927 6.70474C20.1151 7.49849 20.1012 8.45983 19.6563 9.24056C19.4719 9.56413 19.1557 9.86862 18.5235 10.4776L11.0005 17.7234C9.80231 18.8775 9.20321 19.4546 8.45445 19.747C7.7057 20.0394 6.88256 20.0179 5.23629 19.9749L5.01231 19.969C4.51113 19.9559 4.26054 19.9494 4.11487 19.784C3.9692 19.6187 3.98909 19.3634 4.02886 18.853L4.05047 18.5758C4.16241 17.1388 4.21838 16.4204 4.49897 15.7746C4.77955 15.1287 5.26355 14.6044 6.23155 13.5556L13.659 5.50836Z" stroke="black" stroke-width="1.5" stroke-linejoin="round"/>
<path d="M13 6L18 11" stroke="black" stroke-width="1.2" stroke-linejoin="round"/>
<path d="M14 20H20" stroke="black" stroke-width="1.2" stroke-linecap="round" stroke-linejoin="round"/>
</svg>
