<svg width="24" height="24" viewBox="0 0 24 24" fill="none" xmlns="http://www.w3.org/2000/svg">
<path d="M12 23C18.0751 23 23 18.0751 23 12C23 5.92487 18.0751 1 12 1C5.92487 1 1 5.92487 1 12C1 18.0751 5.92487 23 12 23Z" fill="#012169"/>
<path d="M20.4758 4.99005L11.9999 10.0757L3.52408 4.99005C2.81913 5.84251 2.24702 6.79659 1.82715 7.81998L8.79381 12L1.82715 16.18C2.2467 17.2036 2.81856 18.1579 3.52335 19.0106L11.9999 13.9242L20.4765 19.0099C21.1813 18.1572 21.7532 17.2029 22.1727 16.1792L15.2061 11.9992L22.1727 7.81925C21.7528 6.79611 21.1807 5.84228 20.4758 4.99005Z" fill="white"/>
<path d="M3.19135 18.5685L13.0686 12.6417L21.4227 17.654C21.6122 17.339 21.7857 17.0147 21.9427 16.6823L13.0693 11.3583L21.4227 6.34675C21.2326 6.03093 21.028 5.72586 20.8089 5.43155L10.9309 11.3583L2.57682 6.34675C2.38859 6.66061 2.21553 6.98426 2.05762 7.31768L10.9309 12.6417L2.57682 17.654C2.76626 17.9689 2.97136 18.2741 3.19135 18.5685Z" fill="#C8102E"/>
<path d="M14.75 1.3608C12.9482 0.879732 11.0518 0.879732 9.25 1.3608V9.25H1.3608C0.879732 11.0518 0.879732 12.9482 1.3608 14.75H9.25V22.6392C11.0518 23.1203 12.9482 23.1203 14.75 22.6392V14.75H22.6392C23.1203 12.9482 23.1203 11.0518 22.6392 9.25H14.75V1.3608Z" fill="white"/>
<path d="M13.65 1.13713C13.1042 1.05012 12.5527 1.00428 12 1C11.4473 1.00428 10.8958 1.05012 10.35 1.13713V10.35H1.13713C1.05012 10.8958 1.00428 11.4473 1 12C1.00428 12.5527 1.05012 13.1042 1.13713 13.65H10.35V22.8629C10.8958 22.9499 11.4473 22.9957 12 23C12.5527 22.9957 13.1042 22.9499 13.65 22.8629V13.65H22.8629C22.9499 13.1042 22.9957 12.5527 23 12C22.9957 11.4473 22.9499 10.8958 22.8629 10.35H13.65V1.13713Z" fill="#C8102E"/>
</svg>
