<svg width="24" height="24" viewBox="0 0 24 24" fill="none" xmlns="http://www.w3.org/2000/svg">
<g clip-path="url(#clip0_38_1309)">
<mask id="mask0_38_1309" style="mask-type:luminance" maskUnits="userSpaceOnUse" x="0" y="0" width="24" height="24">
<path d="M24 0H0V24H24V0Z" fill="white"/>
</mask>
<g mask="url(#mask0_38_1309)">
<path d="M16 12.9V17.1C16 20.6 14.6 22 11.1 22H6.9C3.4 22 2 20.6 2 17.1V12.9C2 9.4 3.4 8 6.9 8H11.1C14.6 8 16 9.4 16 12.9Z" fill="black" fill-opacity="0.7" stroke="black" stroke-width="1.5" stroke-linecap="round" stroke-linejoin="round"/>
<path d="M22 6.9V11.1C22 14.6 20.6 16 17.1 16H16V12.9C16 9.4 14.6 8 11.1 8H8V6.9C8 3.4 9.4 2 12.9 2H17.1C20.6 2 22 3.4 22 6.9Z" fill="black" fill-opacity="0.7" stroke="black" stroke-width="1.5" stroke-linecap="round" stroke-linejoin="round"/>
</g>
</g>
<defs>
<clipPath id="clip0_38_1309">
<rect width="24" height="24" fill="white"/>
</clipPath>
</defs>
</svg>
