<svg width="24" height="24" viewBox="0 0 24 24" fill="none" xmlns="http://www.w3.org/2000/svg">
<g clip-path="url(#clip0_38_1288)">
<mask id="mask0_38_1288" style="mask-type:luminance" maskUnits="userSpaceOnUse" x="0" y="0" width="24" height="24">
<path d="M24 0H0V24H24V0Z" fill="white"/>
</mask>
<g mask="url(#mask0_38_1288)">
<path d="M16.5176 5.64847L13.4176 3.24847C13.0176 2.84847 12.1176 2.64847 11.5176 2.64847L7.71756 2.64847C6.51756 2.64847 5.21756 3.54847 4.91756 4.74847L2.51756 12.0485C2.01756 13.4485 2.91756 14.6485 4.41756 14.6485L8.41756 14.6485C9.01756 14.6485 9.51756 15.1485 9.41756 15.8485L8.91756 19.0485C8.71756 19.9485 9.31756 20.9485 10.2176 21.2485C11.0176 21.5485 12.0176 21.1485 12.4176 20.5485L16.5176 14.4485" fill="black"/>
<path d="M16.5176 5.64847L13.4176 3.24847C13.0176 2.84847 12.1176 2.64847 11.5176 2.64847L7.71756 2.64847C6.51756 2.64847 5.21756 3.54847 4.91756 4.74847L2.51756 12.0485C2.01756 13.4485 2.91756 14.6485 4.41756 14.6485L8.41756 14.6485C9.01756 14.6485 9.51756 15.1485 9.41756 15.8485L8.91756 19.0485C8.71756 19.9485 9.31756 20.9485 10.2176 21.2485C11.0176 21.5485 12.0176 21.1485 12.4176 20.5485L16.5176 14.4485" stroke="black" stroke-width="1.5" stroke-miterlimit="10"/>
<path d="M21.6182 5.64856L21.6182 15.4486C21.6182 16.8486 21.0182 17.3486 19.6182 17.3486L18.6182 17.3486C17.2182 17.3486 16.6182 16.8486 16.6182 15.4486L16.6182 5.64856C16.6182 4.24856 17.2182 3.74856 18.6182 3.74856L19.6182 3.74856C21.0182 3.74856 21.6182 4.24856 21.6182 5.64856Z" fill="black" stroke="black" stroke-width="1.5" stroke-linecap="round" stroke-linejoin="round"/>
</g>
</g>
<defs>
<clipPath id="clip0_38_1288">
<rect width="24" height="24" fill="white"/>
</clipPath>
</defs>
</svg>
