<svg width="24" height="24" viewBox="0 0 24 24" fill="none" xmlns="http://www.w3.org/2000/svg">
<g clip-path="url(#clip0_20_2407)">
<path fill-rule="evenodd" clip-rule="evenodd" d="M5.16375 12C5.16375 11.2379 5.29033 10.5072 5.51625 9.82186L1.56184 6.80212C0.791149 8.36692 0.356934 10.1301 0.356934 12C0.356934 13.8683 0.790615 15.6304 1.56024 17.1941L5.51251 14.1685C5.28873 13.4864 5.16375 12.7584 5.16375 12Z" fill="#FBBC05"/>
<path fill-rule="evenodd" clip-rule="evenodd" d="M12.1071 5.06666C13.7628 5.06666 15.2582 5.65333 16.4332 6.61333L19.8514 3.2C17.7685 1.38666 15.098 0.266663 12.1071 0.266663C7.46372 0.266663 3.47299 2.92213 1.56201 6.80213L5.51642 9.82186C6.42758 7.056 9.02486 5.06666 12.1071 5.06666Z" fill="#EB4335"/>
<path fill-rule="evenodd" clip-rule="evenodd" d="M12.1071 18.9333C9.02486 18.9333 6.42758 16.944 5.51642 14.1781L1.56201 17.1973C3.47299 21.0778 7.46372 23.7333 12.1071 23.7333C14.973 23.7333 17.7092 22.7157 19.7628 20.809L16.0092 17.9072C14.9501 18.5744 13.6164 18.9333 12.1071 18.9333Z" fill="#34A853"/>
<path fill-rule="evenodd" clip-rule="evenodd" d="M23.3228 12C23.3228 11.3066 23.216 10.56 23.0558 9.86664H12.1069V14.4H18.4092C18.0941 15.9456 17.2363 17.1338 16.009 17.9072L19.7626 20.809C21.9198 18.8069 23.3228 15.8245 23.3228 12Z" fill="#4285F4"/>
</g>
<defs>
<clipPath id="clip0_20_2407">
<rect width="24" height="24" fill="white"/>
</clipPath>
</defs>
</svg>
