<svg width="60" height="60" viewBox="0 0 60 60" fill="none" xmlns="http://www.w3.org/2000/svg">
<path d="M58.119 12.9208C58.2475 13.9469 57.9264 15.6143 57.2199 16.5121C55.6784 18.5642 53.6231 18.5001 51.3108 18.8208C45.7872 19.5904 41.8049 22.9893 40.1349 28.3121C39.8138 29.274 39.6854 30.749 39.5569 31.7751C39.1716 34.1479 37.887 36.2642 36.0244 37.6751C31.7853 41.0098 26.5828 38.2522 21.4444 44.7294C20.0956 46.3968 19.2606 48.3207 18.811 50.3729C18.4899 52.1044 18.8111 54.862 17.5907 56.0804C12.7093 61.1467 4.42368 55.5674 2.36836 50.2446C1.98299 49.1544 1.85453 48.3207 1.72607 47.2946C1.72607 45.7555 1.85456 44.2164 2.88222 42.9979C4.35949 41.2664 6.47907 41.2022 8.53439 41.074C10.8466 40.8816 12.4524 40.1761 14.3793 38.8935C17.5907 36.7772 19.3248 33.699 20.0313 30.0436C20.2882 28.761 20.5452 27.0936 21.059 25.8751C21.7013 24.336 22.8574 23.1175 24.0777 22.0914C26.4542 20.1675 28.3168 20.3599 31.1429 19.8469C34.0332 19.2056 36.7308 17.3458 38.5292 15.1012C39.878 13.4339 40.713 11.1893 41.0984 9.13711C41.4837 7.2132 41.0984 5.09691 42.5757 3.49366C43.4749 2.46757 44.631 1.89042 45.9798 1.82629C48.8701 1.50564 51.5035 2.78823 53.6873 4.58388C55.1645 5.86648 56.3848 7.34148 57.284 9.07299C57.9263 10.3556 58.119 11.5099 58.2474 12.9208H58.119Z" fill="url(#paint0_linear_20_1988)"/>
<path d="M36.8589 6.50778C36.9231 7.66212 36.7946 9.00886 36.2166 10.0349C33.9686 13.7545 30.5001 13.4339 26.9675 14.3317C20.9942 15.9349 16.1129 20.6806 14.5072 26.7088C13.9291 29.0816 13.8649 31.0696 12.7088 33.3142C10.9746 36.5848 7.57049 37.8674 4.23059 36.0718C2.23949 34.9816 0.826492 32.6729 0.248433 30.4283V30.3001C-0.458084 26.837 0.248402 22.3479 3.5883 20.3599C4.68019 19.7827 6.09319 19.5903 7.24931 19.3338C13.0941 17.9871 18.3608 12.7284 19.3885 6.76432C20.0308 2.85237 22.2147 0.864304 26.0684 0.158872C28.7018 -0.35417 31.6563 0.415401 33.9043 1.8904C35.5742 2.98061 36.666 4.71214 37.0514 6.63605L36.8589 6.50778Z" fill="url(#paint1_linear_20_1988)"/>
<path d="M59.9153 31.3903C60.4934 34.7892 58.0527 39.8554 54.3274 40.3685C49.7672 40.9457 46.4273 43.062 43.537 46.6532C42.3808 48.1282 41.4816 49.7956 40.9035 51.5913C40.7751 52.0402 40.3897 53.0663 40.3255 53.5152C39.2979 63.1347 22.4057 61.5956 22.9837 51.9119C23.1122 50.6293 23.5618 49.7956 24.461 48.8337C27.2871 45.6913 31.0124 46.4609 34.6092 45.1141C37.4995 44.0239 39.1695 42.6131 41.3532 40.4968C43.7939 37.9957 44.8216 35.2381 45.6565 31.9033C46.1704 29.6587 46.2989 27.6066 47.7761 25.7468C50.1526 22.7327 53.685 22.3479 56.6396 24.7849C58.6949 26.5164 59.5942 28.9533 59.9153 31.5185V31.3903Z" fill="url(#paint2_linear_20_1988)"/>
<path d="M56.8977 49.2185C56.6408 55.6316 47.3276 60.4413 45.8504 53.7077C45.5935 47.1664 55.9985 42.2283 56.8977 49.2185Z" fill="url(#paint3_linear_20_1988)"/>
<path d="M13.9273 5.86645C14.0557 9.32948 11.8721 12.3436 8.59641 13.5621C6.09149 14.524 3.77916 13.9469 2.87995 11.1251C1.72384 5.7382 12.0646 -1.0596 13.9273 5.80234V5.86645Z" fill="url(#paint4_linear_20_1988)"/>
<defs>
<linearGradient id="paint0_linear_20_1988" x1="1.72607" y1="29.9217" x2="58.2474" y2="29.9217" gradientUnits="userSpaceOnUse">
<stop stop-color="#D93C78"/>
<stop offset="1" stop-color="#FCE2A6"/>
</linearGradient>
<linearGradient id="paint1_linear_20_1988" x1="-0.00206351" y1="18.4424" x2="37.0514" y2="18.4424" gradientUnits="userSpaceOnUse">
<stop stop-color="#D93C78"/>
<stop offset="1" stop-color="#FCE2A6"/>
</linearGradient>
<linearGradient id="paint2_linear_20_1988" x1="22.9709" y1="41.5934" x2="59.9988" y2="41.5934" gradientUnits="userSpaceOnUse">
<stop stop-color="#D93C78"/>
<stop offset="1" stop-color="#FCE2A6"/>
</linearGradient>
<linearGradient id="paint3_linear_20_1988" x1="45.844" y1="51.3926" x2="56.8977" y2="51.3926" gradientUnits="userSpaceOnUse">
<stop stop-color="#D93C78"/>
<stop offset="1" stop-color="#FCE2A6"/>
</linearGradient>
<linearGradient id="paint4_linear_20_1988" x1="2.79003" y1="8.45091" x2="13.9337" y2="8.45091" gradientUnits="userSpaceOnUse">
<stop stop-color="#D93C78"/>
<stop offset="1" stop-color="#FCE2A6"/>
</linearGradient>
</defs>
</svg>
