<svg width="24" height="24" viewBox="0 0 24 24" fill="none" xmlns="http://www.w3.org/2000/svg">
<g clip-path="url(#clip0_38_1267)">
<mask id="mask0_38_1267" style="mask-type:luminance" maskUnits="userSpaceOnUse" x="0" y="0" width="24" height="24">
<path d="M24 0H0V24H24V0Z" fill="white"/>
</mask>
<g mask="url(#mask0_38_1267)">
<path d="M7.47949 18.3505L10.5795 20.7505C10.9795 21.1505 11.8795 21.3505 12.4795 21.3505H16.2795C17.4795 21.3505 18.7795 20.4505 19.0795 19.2505L21.4795 11.9505C21.9795 10.5505 21.0795 9.35046 19.5795 9.35046H15.5795C14.9795 9.35046 14.4795 8.85046 14.5795 8.15046L15.0795 4.95046C15.2795 4.05046 14.6795 3.05046 13.7795 2.75046C12.9795 2.45046 11.9795 2.85046 11.5795 3.45046L7.47949 9.55046" stroke="black" stroke-width="1.5" stroke-miterlimit="10"/>
<path d="M2.37988 18.3504V8.55039C2.37988 7.15039 2.97988 6.65039 4.37988 6.65039H5.37988C6.77988 6.65039 7.37988 7.15039 7.37988 8.55039V18.3504C7.37988 19.7504 6.77988 20.2504 5.37988 20.2504H4.37988C2.97988 20.2504 2.37988 19.7504 2.37988 18.3504Z" stroke="black" stroke-width="1.5" stroke-linecap="round" stroke-linejoin="round"/>
</g>
</g>
<defs>
<clipPath id="clip0_38_1267">
<rect width="24" height="24" fill="white"/>
</clipPath>
</defs>
</svg>
